<svg id="Capa_1" enable-background="new 0 0 512 512" height="512" viewBox="0 0 512 512" width="512" xmlns="http://www.w3.org/2000/svg"><g><path d="m255.999 11c-135.309 0-244.999 109.69-244.999 245 0 48.058 13.849 92.877 37.756 130.705 1.418.344 2.84.663 4.259 1h405.97c1.419-.337 2.841-.656 4.259-1 23.698-37.496 37.512-81.859 37.753-129.439.686-135.484-109.513-246.266-244.998-246.266z" fill="#fe646f"/><g fill="#fed2a4"><path d="m43.87 255.094h64.13v-37.254h-72.634c1.688 2.151 1.566 5.269-.415 7.25l1.414 1.414c1.036-1.036 2.414-1.606 3.879-1.606 1.466 0 2.843.57 3.879 1.606l.559.559c2.139 2.139 2.139 5.619 0 7.758l1.414 1.414c1.036-1.036 2.414-1.607 3.879-1.607s2.843.571 3.879 1.607l.559.559c2.139 2.139 2.139 5.619 0 7.758z"/><path d="m457.587 244.552c-2.139-2.139-2.139-5.62 0-7.758l.559-.559c1.036-1.036 2.414-1.607 3.879-1.607s2.843.571 3.879 1.607l1.414-1.414c-2.139-2.139-2.139-5.62 0-7.758l.559-.559c1.036-1.036 2.414-1.606 3.879-1.606s2.843.57 3.879 1.606l1.414-1.414c-1.981-1.981-2.103-5.099-.415-7.25h-72.634v37.254h64.13z"/></g><path d="m400 211.066h-288c-2.761 0-5 2.239-5 5v50.178c0 2.761 2.239 5 5 5h66.105v103.192h155.789v-103.191h66.106c2.761 0 5-2.239 5-5v-50.178c0-2.762-2.239-5.001-5-5.001z" fill="#fff"/><g><path d="m178.105 373.437h18v-100.259c0-8.284-6.716-15-15-15h-51.105c-2.761 0-5-2.239-5-5v-42.112h-13c-2.761 0-5 2.239-5 5v50.178c0 2.761 2.239 5 5 5h66.105z" fill="#eaf6ff"/></g><path d="m265.492 206.465h-18.983c-4.946 0-9.72-.751-14.215-2.141v17.289c0 1.658.822 3.209 2.195 4.139l18.707 12.676c1.694 1.148 3.916 1.148 5.61 0l18.707-12.676c1.373-.93 2.195-2.481 2.195-4.139v-17.289c-4.497 1.39-9.27 2.141-14.216 2.141z" fill="#ffbd86"/><path d="m249 216.502v-9.037h-2.492c-4.944 0-9.714-.737-14.215-2.094v16.241c0 1.658.822 3.209 2.195 4.139l18.707 12.676c1.694 1.148 3.916 1.148 5.61 0l9.319-6.315-16.929-11.471c-1.373-.93-2.195-2.48-2.195-4.139z" fill="#f6a96c"/><g fill="#5a86be"><path d="m313.697 115.693h6.869c1.664 0 3.265.271 4.768.759v-12.501c-1.139-.344-2.281-.673-3.423-1h-8.214z"/><path d="m191.434 115.693h6.869v-12.742h-8.214c-1.143.327-2.285.656-3.423 1v12.501c1.503-.488 3.104-.759 4.768-.759z"/></g><g><path d="m198.303 114.694h-6.869c-9.105 0-16.487 7.381-16.487 16.487v9.994c0 9.105 7.381 16.487 16.487 16.487h6.869z" fill="#fed2a4"/><path d="m320.566 114.694h-6.869v42.968h6.869c9.105 0 16.487-7.381 16.487-16.487v-9.994c0-9.106-7.382-16.487-16.487-16.487z" fill="#ffbd86"/></g><path d="m197.303 102.952v55.308c0 27.175 22.03 49.205 49.205 49.205h18.983c27.175 0 49.205-22.03 49.205-49.205v-55.308z" fill="#fed2a4"/><g><path d="m325.334 103.952h-138.668v-51.952c0-8.284 6.716-15 15-15h108.668c8.284 0 15 6.716 15 15z" fill="#fff"/></g><path d="m218 158.26v-54.308h-20.697v54.308c0 27.175 22.03 49.205 49.205 49.205h18.983c.287 0 .571-.017.857-.022-26.778-.459-48.348-22.296-48.348-49.183z" fill="#ffbd86"/><g><path d="m325.334 103.952h-138.668v-51.952c0-8.284 6.716-15 15-15h108.668c8.284 0 15 6.716 15 15z" fill="#fff"/></g><path d="m233 37h-31.334c-8.284 0-15 6.716-15 15v51.952h31.334v-51.952c0-8.284 6.716-15 15-15z" fill="#eaf6ff"/><g><path d="m256 501c87.252 0 163.839-45.617 207.244-114.295h-414.488c43.405 68.678 119.992 114.295 207.244 114.295z" fill="#f6a96c"/></g><path d="m396.026 421c1.22-1.244 1.974-2.946 1.974-4.825 0-23.603-19.134-42.738-42.738-42.738h-198.524c-23.603 0-42.738 19.134-42.738 42.738 0 1.88.754 3.582 1.974 4.825z" fill="#fef0ae"/><path d="m146.16 420c-.732-1.095-1.16-2.41-1.16-3.825 0-23.603 19.134-42.738 42.738-42.738h-31c-23.603 0-42.738 19.134-42.738 42.738 0 1.416.428 2.73 1.16 3.825z" fill="#ffe471"/><g><g><circle cx="226.648" cy="127.877" fill="#883f2e" r="8.467"/></g><g><circle cx="285.352" cy="127.877" fill="#883f2e" r="8.467"/></g></g><g><path d="m256 195.773c-14.718 0-26.691-11.974-26.691-26.691 0-4.142 3.358-7.5 7.5-7.5s7.5 3.358 7.5 7.5c0 6.447 5.245 11.691 11.691 11.691 6.447 0 11.691-5.245 11.691-11.691 0-4.142 3.358-7.5 7.5-7.5s7.5 3.358 7.5 7.5c0 14.718-11.973 26.691-26.691 26.691z" fill="#f6a96c"/></g><g><path d="m261.645 155.133h-6.773c-5.38 0-9.758-4.377-9.758-9.758v-13.713c0-4.142 3.358-7.5 7.5-7.5s7.5 3.358 7.5 7.5v8.471h1.531c4.142 0 7.5 3.358 7.5 7.5s-3.358 7.5-7.5 7.5z" fill="#f6a96c"/></g><g><circle cx="369.5" cy="359.5" fill="#fff" r="7.5"/></g><g><circle cx="143.5" cy="359.5" fill="#fff" r="7.5"/></g><g><circle cx="124.5" cy="387.5" fill="#fff" r="7.5"/></g><g><circle cx="289.5" cy="285.5" fill="#fef0ae" r="7.5"/></g><g><path d="m257.278 308.87-5.408 5.408c-.817.817-.817 2.141 0 2.958l5.408 5.408c.817.817 2.141.817 2.958 0l5.408-5.408c.817-.817.817-2.141 0-2.958l-5.408-5.408c-.816-.817-2.141-.817-2.958 0z" fill="#fef0ae"/></g><g><path d="m294.021 384.613-5.408 5.408c-.817.817-.817 2.141 0 2.958l5.408 5.408c.817.817 2.141.817 2.958 0l5.408-5.408c.817-.817.817-2.141 0-2.958l-5.408-5.408c-.817-.817-2.141-.817-2.958 0z" fill="#fff"/></g><g><path d="m338.021 397.613-5.408 5.408c-.817.817-.817 2.141 0 2.958l5.408 5.408c.817.817 2.141.817 2.958 0l5.408-5.408c.817-.817.817-2.141 0-2.958l-5.408-5.408c-.817-.817-2.141-.817-2.958 0z" fill="#fff"/></g><g><path d="m382.021 376.613-5.408 5.408c-.817.817-.817 2.141 0 2.958l5.408 5.408c.817.817 2.141.817 2.958 0l5.408-5.408c.817-.817.817-2.141 0-2.958l-5.408-5.408c-.817-.817-2.141-.817-2.958 0z" fill="#fff"/></g><g><path d="m108.021 350.613-5.408 5.408c-.817.817-.817 2.141 0 2.958l5.408 5.408c.817.817 2.141.817 2.958 0l5.408-5.408c.817-.817.817-2.141 0-2.958l-5.408-5.408c-.817-.817-2.141-.817-2.958 0z" fill="#fff"/></g><g><path d="m222.764 284.355-5.408 5.408c-.817.817-.817 2.141 0 2.958l5.408 5.408c.817.817 2.141.817 2.958 0l5.408-5.408c.817-.817.817-2.141 0-2.958l-5.408-5.408c-.817-.817-2.141-.817-2.958 0z" fill="#fef0ae"/></g><g fill="#f6a96c"><path d="m70.938 426.472h-29.045c-2.979 0-5.393 2.415-5.393 5.393v11.865c0 2.979 2.415 5.393 5.393 5.393h29.044v-22.651z"/><path d="m470.107 426.472h-29.044v22.651h29.044c2.979 0 5.393-2.415 5.393-5.393v-11.865c0-2.979-2.415-5.393-5.393-5.393z"/></g><g fill="#d88a55"><path d="m442.063 439v10.123h28.044c2.979 0 5.393-2.415 5.393-5.393v-4.73z"/><path d="m69.937 439h-17.544c-2.979 0-5.393-2.415-5.393-5.393v-7.135h-5.107c-2.979 0-5.393 2.415-5.393 5.393v11.865c0 2.979 2.415 5.393 5.393 5.393h28.044z"/></g><g><path d="m436.67 455.595h-361.34c-2.979 0-5.393-2.415-5.393-5.393v-24.808c0-2.979 2.415-5.393 5.393-5.393h361.34c2.979 0 5.393 2.415 5.393 5.393v24.808c0 2.978-2.415 5.393-5.393 5.393z" fill="#fed2a4"/></g><path d="m92.393 441.595c-2.979 0-5.393-2.415-5.393-5.393v-16.202h-11.67c-2.979 0-5.393 2.415-5.393 5.393v24.808c0 2.979 2.415 5.393 5.393 5.393h361.34c2.979 0 5.393-2.415 5.393-5.393v-8.607h-349.67z" fill="#ffbd86"/><g><path d="m457.587 244.552c-.266-.266-.498-.553-.698-.855-55.487 62.661-126.164 96.923-200.889 96.923s-145.402-34.262-200.889-96.924c-.2.302-.432.589-.698.855l-6.299 6.299c26.657 29.987 56.797 53.738 89.85 70.703 37.575 19.288 77.288 29.067 118.036 29.067s80.461-9.779 118.037-29.066c33.053-16.965 63.193-40.716 89.85-70.703z" fill="#fef0ae"/></g><path d="m471.884 258.848-6.553-6.553c-56.668 68.941-130.761 106.82-209.331 106.82s-152.663-37.878-209.331-106.82l-6.553 6.553c-.184.184-.391.335-.596.49 28.708 34.759 61.79 61.898 98.443 80.711 37.576 19.287 77.289 29.066 118.037 29.066s80.461-9.779 118.037-29.066c36.653-18.813 69.735-45.952 98.443-80.711-.205-.155-.412-.306-.596-.49z" fill="#fef0ae"/><g><g><path d="m510.1 220.631-14.296-14.296c-2.533-2.533-6.639-2.533-9.172 0l-.559.559c-2.533 2.533-2.533 6.639 0 9.172-2.533-2.533-6.639-2.533-9.172 0l-.559.559c-2.533 2.533-2.533 6.639 0 9.172-2.533-2.533-6.639-2.533-9.172 0l-.559.559c-2.533 2.533-2.533 6.639 0 9.172-2.533-2.533-6.639-2.533-9.172 0l-.559.559c-2.533 2.533-2.533 6.639 0 9.172l14.296 14.296c2.533 2.533 6.639 2.533 9.172 0l29.751-29.751c2.534-2.533 2.534-6.64.001-9.173z" fill="#ffbd86"/></g></g><g><g><path d="m1.9 220.631 14.296-14.296c2.533-2.533 6.639-2.533 9.172 0l.559.559c2.533 2.533 2.533 6.639 0 9.172 2.533-2.533 6.639-2.533 9.172 0l.559.559c2.533 2.533 2.533 6.639 0 9.172 2.533-2.533 6.639-2.533 9.172 0l.559.559c2.533 2.533 2.533 6.639 0 9.172 2.533-2.533 6.639-2.533 9.172 0l.559.559c2.533 2.533 2.533 6.639 0 9.172l-14.296 14.296c-2.533 2.533-6.639 2.533-9.172 0l-29.752-29.751c-2.533-2.533-2.533-6.64 0-9.173z" fill="#ffbd86"/></g></g><g><g><path d="m1.9 220.631 14.296-14.296c2.533-2.533 6.639-2.533 9.172 0l.559.559c2.533 2.533 2.533 6.639 0 9.172 2.533-2.533 6.639-2.533 9.172 0l.559.559c2.533 2.533 2.533 6.639 0 9.172 2.533-2.533 6.639-2.533 9.172 0l.559.559c2.533 2.533 2.533 6.639 0 9.172 2.533-2.533 6.639-2.533 9.172 0l.559.559c2.533 2.533 2.533 6.639 0 9.172l-14.296 14.296c-2.533 2.533-6.639 2.533-9.172 0l-29.752-29.751c-2.533-2.533-2.533-6.64 0-9.173z" fill="#ffbd86"/></g></g><path d="m40.117 251.586-30.155-30.155c-2.077-2.077-2.472-5.197-1.188-7.673l-6.874 6.873c-2.533 2.533-2.533 6.639 0 9.172l29.751 29.751c2.533 2.533 6.639 2.533 9.172 0l6.619-6.619c-2.415 1.078-5.344.632-7.325-1.349z" fill="#f6a96c"/></g></svg>